<mxfile host="app.diagrams.net" modified="2023-06-02T17:45:46.979Z" agent="Mozilla/5.0 (Windows NT 10.0; Win64; x64) AppleWebKit/537.36 (KHTML, like Gecko) Chrome/113.0.0.0 Safari/537.36 Edg/113.0.1774.57" etag="NhMIstr0VbZdxaYB3RBP" version="21.2.7" type="github">
  <diagram id="R2lEEEUBdFMjLlhIrx00" name="Page-1">
    <mxGraphModel dx="979" dy="470" grid="1" gridSize="10" guides="1" tooltips="1" connect="1" arrows="1" fold="1" page="1" pageScale="1" pageWidth="827" pageHeight="1169" math="0" shadow="0" extFonts="Permanent Marker^https://fonts.googleapis.com/css?family=Permanent+Marker">
      <root>
        <mxCell id="0" />
        <mxCell id="1" parent="0" />
        <mxCell id="BO10jVwyeY7o9jluabwl-24" value="" style="edgeStyle=orthogonalEdgeStyle;rounded=0;orthogonalLoop=1;jettySize=auto;html=1;" parent="1" source="BO10jVwyeY7o9jluabwl-1" target="BO10jVwyeY7o9jluabwl-20" edge="1">
          <mxGeometry relative="1" as="geometry" />
        </mxCell>
        <mxCell id="BO10jVwyeY7o9jluabwl-25" style="edgeStyle=orthogonalEdgeStyle;rounded=0;orthogonalLoop=1;jettySize=auto;html=1;entryX=0.5;entryY=0;entryDx=0;entryDy=0;" parent="1" source="BO10jVwyeY7o9jluabwl-1" target="BO10jVwyeY7o9jluabwl-21" edge="1">
          <mxGeometry relative="1" as="geometry" />
        </mxCell>
        <mxCell id="BO10jVwyeY7o9jluabwl-26" style="edgeStyle=orthogonalEdgeStyle;rounded=0;orthogonalLoop=1;jettySize=auto;html=1;entryX=0.5;entryY=0;entryDx=0;entryDy=0;" parent="1" source="BO10jVwyeY7o9jluabwl-1" target="BO10jVwyeY7o9jluabwl-22" edge="1">
          <mxGeometry relative="1" as="geometry" />
        </mxCell>
        <mxCell id="BO10jVwyeY7o9jluabwl-27" style="edgeStyle=orthogonalEdgeStyle;rounded=0;orthogonalLoop=1;jettySize=auto;html=1;entryX=0.5;entryY=0;entryDx=0;entryDy=0;" parent="1" source="BO10jVwyeY7o9jluabwl-1" target="BO10jVwyeY7o9jluabwl-19" edge="1">
          <mxGeometry relative="1" as="geometry" />
        </mxCell>
        <mxCell id="BO10jVwyeY7o9jluabwl-1" value="Metric Master" style="shape=table;startSize=30;container=1;collapsible=1;childLayout=tableLayout;fixedRows=1;rowLines=0;fontStyle=1;align=center;resizeLast=1;" parent="1" vertex="1" collapsed="1">
          <mxGeometry x="700" y="100" width="100" height="30" as="geometry">
            <mxRectangle x="700" y="100" width="250" height="70" as="alternateBounds" />
          </mxGeometry>
        </mxCell>
        <mxCell id="BO10jVwyeY7o9jluabwl-2" value="" style="shape=partialRectangle;collapsible=0;dropTarget=0;pointerEvents=0;fillColor=none;points=[[0,0.5],[1,0.5]];portConstraint=eastwest;top=0;left=0;right=0;bottom=1;" parent="BO10jVwyeY7o9jluabwl-1" vertex="1">
          <mxGeometry y="30" width="250" height="30" as="geometry" />
        </mxCell>
        <mxCell id="BO10jVwyeY7o9jluabwl-3" value="DT" style="shape=partialRectangle;overflow=hidden;connectable=0;fillColor=none;top=0;left=0;bottom=0;right=0;fontStyle=1;" parent="BO10jVwyeY7o9jluabwl-2" vertex="1">
          <mxGeometry width="30" height="30" as="geometry">
            <mxRectangle width="30" height="30" as="alternateBounds" />
          </mxGeometry>
        </mxCell>
        <mxCell id="BO10jVwyeY7o9jluabwl-4" value="defaultdict(dict)" style="shape=partialRectangle;overflow=hidden;connectable=0;fillColor=none;top=0;left=0;bottom=0;right=0;align=left;spacingLeft=6;fontStyle=5;" parent="BO10jVwyeY7o9jluabwl-2" vertex="1">
          <mxGeometry x="30" width="220" height="30" as="geometry">
            <mxRectangle width="220" height="30" as="alternateBounds" />
          </mxGeometry>
        </mxCell>
        <mxCell id="BO10jVwyeY7o9jluabwl-19" value="Block 1" style="rounded=1;whiteSpace=wrap;html=1;" parent="1" vertex="1">
          <mxGeometry x="550" y="180" width="80" height="30" as="geometry" />
        </mxCell>
        <mxCell id="BO10jVwyeY7o9jluabwl-76" style="edgeStyle=orthogonalEdgeStyle;rounded=0;orthogonalLoop=1;jettySize=auto;html=1;entryX=0.5;entryY=0;entryDx=0;entryDy=0;" parent="1" source="BO10jVwyeY7o9jluabwl-20" edge="1">
          <mxGeometry relative="1" as="geometry">
            <mxPoint x="910" y="330" as="targetPoint" />
            <Array as="points">
              <mxPoint x="750" y="290" />
              <mxPoint x="910" y="290" />
            </Array>
          </mxGeometry>
        </mxCell>
        <mxCell id="BO10jVwyeY7o9jluabwl-77" style="edgeStyle=orthogonalEdgeStyle;rounded=0;orthogonalLoop=1;jettySize=auto;html=1;entryX=0.5;entryY=0;entryDx=0;entryDy=0;" parent="1" source="BO10jVwyeY7o9jluabwl-20" target="BO10jVwyeY7o9jluabwl-71" edge="1">
          <mxGeometry relative="1" as="geometry">
            <Array as="points">
              <mxPoint x="750" y="290" />
              <mxPoint x="715" y="290" />
            </Array>
          </mxGeometry>
        </mxCell>
        <mxCell id="BO10jVwyeY7o9jluabwl-78" style="edgeStyle=orthogonalEdgeStyle;rounded=0;orthogonalLoop=1;jettySize=auto;html=1;" parent="1" source="BO10jVwyeY7o9jluabwl-20" target="BO10jVwyeY7o9jluabwl-72" edge="1">
          <mxGeometry relative="1" as="geometry">
            <Array as="points">
              <mxPoint x="750" y="290" />
              <mxPoint x="1250" y="290" />
            </Array>
          </mxGeometry>
        </mxCell>
        <mxCell id="BO10jVwyeY7o9jluabwl-79" style="edgeStyle=orthogonalEdgeStyle;rounded=0;orthogonalLoop=1;jettySize=auto;html=1;" parent="1" source="BO10jVwyeY7o9jluabwl-20" target="BO10jVwyeY7o9jluabwl-73" edge="1">
          <mxGeometry relative="1" as="geometry">
            <Array as="points">
              <mxPoint x="750" y="290" />
              <mxPoint x="1485" y="290" />
            </Array>
          </mxGeometry>
        </mxCell>
        <mxCell id="BO10jVwyeY7o9jluabwl-81" style="edgeStyle=orthogonalEdgeStyle;rounded=0;orthogonalLoop=1;jettySize=auto;html=1;entryX=0.5;entryY=0;entryDx=0;entryDy=0;" parent="1" source="BO10jVwyeY7o9jluabwl-20" target="BO10jVwyeY7o9jluabwl-70" edge="1">
          <mxGeometry relative="1" as="geometry">
            <Array as="points">
              <mxPoint x="750" y="290" />
              <mxPoint x="235" y="290" />
            </Array>
          </mxGeometry>
        </mxCell>
        <mxCell id="BO10jVwyeY7o9jluabwl-91" style="edgeStyle=orthogonalEdgeStyle;rounded=0;orthogonalLoop=1;jettySize=auto;html=1;" parent="1" source="BO10jVwyeY7o9jluabwl-20" target="BO10jVwyeY7o9jluabwl-86" edge="1">
          <mxGeometry relative="1" as="geometry">
            <Array as="points">
              <mxPoint x="750" y="290" />
              <mxPoint x="390" y="290" />
            </Array>
          </mxGeometry>
        </mxCell>
        <mxCell id="BO10jVwyeY7o9jluabwl-92" style="edgeStyle=orthogonalEdgeStyle;rounded=0;orthogonalLoop=1;jettySize=auto;html=1;entryX=0.5;entryY=0;entryDx=0;entryDy=0;" parent="1" source="BO10jVwyeY7o9jluabwl-20" target="BO10jVwyeY7o9jluabwl-89" edge="1">
          <mxGeometry relative="1" as="geometry">
            <Array as="points">
              <mxPoint x="750" y="290" />
              <mxPoint x="542" y="290" />
            </Array>
          </mxGeometry>
        </mxCell>
        <mxCell id="BO10jVwyeY7o9jluabwl-93" style="edgeStyle=orthogonalEdgeStyle;rounded=0;orthogonalLoop=1;jettySize=auto;html=1;entryX=0.5;entryY=0;entryDx=0;entryDy=0;" parent="1" source="BO10jVwyeY7o9jluabwl-20" target="BO10jVwyeY7o9jluabwl-90" edge="1">
          <mxGeometry relative="1" as="geometry">
            <Array as="points">
              <mxPoint x="750" y="290" />
              <mxPoint x="1068" y="290" />
            </Array>
          </mxGeometry>
        </mxCell>
        <mxCell id="BO10jVwyeY7o9jluabwl-20" value="Block 2" style="rounded=1;whiteSpace=wrap;html=1;" parent="1" vertex="1">
          <mxGeometry x="710" y="180" width="80" height="30" as="geometry" />
        </mxCell>
        <mxCell id="BO10jVwyeY7o9jluabwl-21" value="Block 3" style="rounded=1;whiteSpace=wrap;html=1;" parent="1" vertex="1">
          <mxGeometry x="850" y="180" width="80" height="30" as="geometry" />
        </mxCell>
        <mxCell id="BO10jVwyeY7o9jluabwl-22" value="Block 4" style="rounded=1;whiteSpace=wrap;html=1;" parent="1" vertex="1">
          <mxGeometry x="1010" y="180" width="80" height="30" as="geometry" />
        </mxCell>
        <mxCell id="BO10jVwyeY7o9jluabwl-28" value="" style="endArrow=none;dashed=1;html=1;dashPattern=1 3;strokeWidth=2;rounded=0;" parent="1" edge="1">
          <mxGeometry width="50" height="50" relative="1" as="geometry">
            <mxPoint x="589.41" y="250" as="sourcePoint" />
            <mxPoint x="589.41" y="210" as="targetPoint" />
          </mxGeometry>
        </mxCell>
        <mxCell id="BO10jVwyeY7o9jluabwl-29" value="" style="endArrow=none;dashed=1;html=1;dashPattern=1 3;strokeWidth=2;rounded=0;" parent="1" edge="1">
          <mxGeometry width="50" height="50" relative="1" as="geometry">
            <mxPoint x="1049" y="250" as="sourcePoint" />
            <mxPoint x="1049.2" y="210" as="targetPoint" />
          </mxGeometry>
        </mxCell>
        <mxCell id="BO10jVwyeY7o9jluabwl-30" value="" style="endArrow=none;dashed=1;html=1;dashPattern=1 3;strokeWidth=2;rounded=0;" parent="1" edge="1">
          <mxGeometry width="50" height="50" relative="1" as="geometry">
            <mxPoint x="889.41" y="250" as="sourcePoint" />
            <mxPoint x="889.41" y="210" as="targetPoint" />
          </mxGeometry>
        </mxCell>
        <mxCell id="BO10jVwyeY7o9jluabwl-32" value="" style="endArrow=none;dashed=1;html=1;dashPattern=1 3;strokeWidth=2;rounded=0;" parent="1" edge="1">
          <mxGeometry width="50" height="50" relative="1" as="geometry">
            <mxPoint x="1110" y="194.41" as="sourcePoint" />
            <mxPoint x="1190" y="194.41" as="targetPoint" />
          </mxGeometry>
        </mxCell>
        <mxCell id="BO10jVwyeY7o9jluabwl-99" style="edgeStyle=orthogonalEdgeStyle;rounded=0;orthogonalLoop=1;jettySize=auto;html=1;entryX=0.5;entryY=0;entryDx=0;entryDy=0;" parent="1" source="BO10jVwyeY7o9jluabwl-70" target="BO10jVwyeY7o9jluabwl-82" edge="1">
          <mxGeometry relative="1" as="geometry">
            <Array as="points">
              <mxPoint x="235" y="390" />
              <mxPoint x="135" y="390" />
            </Array>
          </mxGeometry>
        </mxCell>
        <mxCell id="BO10jVwyeY7o9jluabwl-101" style="edgeStyle=orthogonalEdgeStyle;rounded=0;orthogonalLoop=1;jettySize=auto;html=1;entryX=0.5;entryY=0;entryDx=0;entryDy=0;" parent="1" source="BO10jVwyeY7o9jluabwl-70" target="BO10jVwyeY7o9jluabwl-83" edge="1">
          <mxGeometry relative="1" as="geometry">
            <Array as="points">
              <mxPoint x="235" y="390" />
              <mxPoint x="255" y="390" />
            </Array>
          </mxGeometry>
        </mxCell>
        <mxCell id="BO10jVwyeY7o9jluabwl-102" style="edgeStyle=orthogonalEdgeStyle;rounded=0;orthogonalLoop=1;jettySize=auto;html=1;entryX=0.5;entryY=0;entryDx=0;entryDy=0;" parent="1" source="BO10jVwyeY7o9jluabwl-70" target="BO10jVwyeY7o9jluabwl-84" edge="1">
          <mxGeometry relative="1" as="geometry">
            <Array as="points">
              <mxPoint x="235" y="390" />
              <mxPoint x="375" y="390" />
            </Array>
          </mxGeometry>
        </mxCell>
        <mxCell id="BO10jVwyeY7o9jluabwl-103" style="edgeStyle=orthogonalEdgeStyle;rounded=0;orthogonalLoop=1;jettySize=auto;html=1;entryX=0.5;entryY=0;entryDx=0;entryDy=0;" parent="1" source="BO10jVwyeY7o9jluabwl-70" target="BO10jVwyeY7o9jluabwl-85" edge="1">
          <mxGeometry relative="1" as="geometry">
            <Array as="points">
              <mxPoint x="235" y="390" />
              <mxPoint x="494" y="390" />
            </Array>
          </mxGeometry>
        </mxCell>
        <mxCell id="BO10jVwyeY7o9jluabwl-70" value="Floorplan" style="rounded=1;whiteSpace=wrap;html=1;" parent="1" vertex="1">
          <mxGeometry x="180" y="330" width="110" height="30" as="geometry" />
        </mxCell>
        <mxCell id="BO10jVwyeY7o9jluabwl-114" style="edgeStyle=orthogonalEdgeStyle;rounded=0;orthogonalLoop=1;jettySize=auto;html=1;" parent="1" source="BO10jVwyeY7o9jluabwl-71" target="BO10jVwyeY7o9jluabwl-110" edge="1">
          <mxGeometry relative="1" as="geometry">
            <Array as="points">
              <mxPoint x="715" y="400" />
              <mxPoint x="855" y="400" />
            </Array>
          </mxGeometry>
        </mxCell>
        <mxCell id="BO10jVwyeY7o9jluabwl-117" style="edgeStyle=orthogonalEdgeStyle;rounded=0;orthogonalLoop=1;jettySize=auto;html=1;entryX=0.5;entryY=0;entryDx=0;entryDy=0;" parent="1" source="BO10jVwyeY7o9jluabwl-71" target="BO10jVwyeY7o9jluabwl-108" edge="1">
          <mxGeometry relative="1" as="geometry">
            <Array as="points">
              <mxPoint x="715" y="400" />
              <mxPoint x="625" y="400" />
            </Array>
          </mxGeometry>
        </mxCell>
        <mxCell id="BO10jVwyeY7o9jluabwl-118" style="edgeStyle=orthogonalEdgeStyle;rounded=0;orthogonalLoop=1;jettySize=auto;html=1;entryX=0.5;entryY=0;entryDx=0;entryDy=0;" parent="1" source="BO10jVwyeY7o9jluabwl-71" target="BO10jVwyeY7o9jluabwl-109" edge="1">
          <mxGeometry relative="1" as="geometry">
            <Array as="points">
              <mxPoint x="715" y="400" />
              <mxPoint x="735" y="400" />
            </Array>
          </mxGeometry>
        </mxCell>
        <mxCell id="BO10jVwyeY7o9jluabwl-119" style="edgeStyle=orthogonalEdgeStyle;rounded=0;orthogonalLoop=1;jettySize=auto;html=1;entryX=0.5;entryY=0;entryDx=0;entryDy=0;" parent="1" source="BO10jVwyeY7o9jluabwl-71" target="BO10jVwyeY7o9jluabwl-107" edge="1">
          <mxGeometry relative="1" as="geometry">
            <Array as="points">
              <mxPoint x="715" y="400" />
              <mxPoint x="975" y="400" />
            </Array>
          </mxGeometry>
        </mxCell>
        <mxCell id="BO10jVwyeY7o9jluabwl-71" value="Placeopt" style="rounded=1;whiteSpace=wrap;html=1;" parent="1" vertex="1">
          <mxGeometry x="660" y="330" width="110" height="30" as="geometry" />
        </mxCell>
        <mxCell id="BO10jVwyeY7o9jluabwl-72" value="Clock" style="rounded=1;whiteSpace=wrap;html=1;" parent="1" vertex="1">
          <mxGeometry x="1190" y="330" width="110" height="30" as="geometry" />
        </mxCell>
        <mxCell id="BO10jVwyeY7o9jluabwl-73" value="Route" style="rounded=1;whiteSpace=wrap;html=1;" parent="1" vertex="1">
          <mxGeometry x="1430" y="330" width="110" height="30" as="geometry" />
        </mxCell>
        <mxCell id="BO10jVwyeY7o9jluabwl-82" value="Timing" style="rounded=1;whiteSpace=wrap;html=1;" parent="1" vertex="1">
          <mxGeometry x="90" y="430" width="90" height="40" as="geometry" />
        </mxCell>
        <mxCell id="BO10jVwyeY7o9jluabwl-83" value="Utilization" style="rounded=1;whiteSpace=wrap;html=1;" parent="1" vertex="1">
          <mxGeometry x="210" y="430" width="90" height="40" as="geometry" />
        </mxCell>
        <mxCell id="BO10jVwyeY7o9jluabwl-96" style="edgeStyle=orthogonalEdgeStyle;rounded=0;orthogonalLoop=1;jettySize=auto;html=1;entryX=0.5;entryY=0;entryDx=0;entryDy=0;" parent="1" source="BO10jVwyeY7o9jluabwl-84" target="BO10jVwyeY7o9jluabwl-95" edge="1">
          <mxGeometry relative="1" as="geometry" />
        </mxCell>
        <mxCell id="BO10jVwyeY7o9jluabwl-98" style="edgeStyle=orthogonalEdgeStyle;rounded=0;orthogonalLoop=1;jettySize=auto;html=1;entryX=0.5;entryY=0;entryDx=0;entryDy=0;" parent="1" source="BO10jVwyeY7o9jluabwl-84" target="BO10jVwyeY7o9jluabwl-97" edge="1">
          <mxGeometry relative="1" as="geometry" />
        </mxCell>
        <mxCell id="BO10jVwyeY7o9jluabwl-84" value="Congestion" style="rounded=1;whiteSpace=wrap;html=1;" parent="1" vertex="1">
          <mxGeometry x="330" y="430" width="90" height="40" as="geometry" />
        </mxCell>
        <mxCell id="BO10jVwyeY7o9jluabwl-85" value="TCIC errors" style="rounded=1;whiteSpace=wrap;html=1;" parent="1" vertex="1">
          <mxGeometry x="449" y="430" width="90" height="40" as="geometry" />
        </mxCell>
        <mxCell id="BO10jVwyeY7o9jluabwl-86" value="Size" style="rounded=1;whiteSpace=wrap;html=1;" parent="1" vertex="1">
          <mxGeometry x="340" y="330" width="100" height="30" as="geometry" />
        </mxCell>
        <mxCell id="BO10jVwyeY7o9jluabwl-89" value="Macro count" style="rounded=1;whiteSpace=wrap;html=1;" parent="1" vertex="1">
          <mxGeometry x="493.5" y="330" width="96.5" height="30" as="geometry" />
        </mxCell>
        <mxCell id="BO10jVwyeY7o9jluabwl-90" value="Std cell count" style="rounded=1;whiteSpace=wrap;html=1;" parent="1" vertex="1">
          <mxGeometry x="1020" y="330" width="96.5" height="30" as="geometry" />
        </mxCell>
        <mxCell id="BO10jVwyeY7o9jluabwl-95" value="hostspot max/tot&amp;nbsp;" style="rounded=1;whiteSpace=wrap;html=1;" parent="1" vertex="1">
          <mxGeometry x="270" y="510" width="90" height="30" as="geometry" />
        </mxCell>
        <mxCell id="BO10jVwyeY7o9jluabwl-97" value="Overflow" style="rounded=1;whiteSpace=wrap;html=1;" parent="1" vertex="1">
          <mxGeometry x="390" y="510" width="100" height="30" as="geometry" />
        </mxCell>
        <mxCell id="BO10jVwyeY7o9jluabwl-107" value="Congetion" style="rounded=1;whiteSpace=wrap;html=1;" parent="1" vertex="1">
          <mxGeometry x="930" y="430" width="90" height="40" as="geometry" />
        </mxCell>
        <mxCell id="BO10jVwyeY7o9jluabwl-108" value="Timing" style="rounded=1;whiteSpace=wrap;html=1;" parent="1" vertex="1">
          <mxGeometry x="580" y="430" width="90" height="40" as="geometry" />
        </mxCell>
        <mxCell id="BO10jVwyeY7o9jluabwl-109" value="Utlilization" style="rounded=1;whiteSpace=wrap;html=1;" parent="1" vertex="1">
          <mxGeometry x="690" y="430" width="90" height="40" as="geometry" />
        </mxCell>
        <mxCell id="BO10jVwyeY7o9jluabwl-110" value="mbit_percent" style="rounded=1;whiteSpace=wrap;html=1;" parent="1" vertex="1">
          <mxGeometry x="810" y="430" width="90" height="40" as="geometry" />
        </mxCell>
        <mxCell id="BO10jVwyeY7o9jluabwl-116" value="Tool" style="rounded=1;whiteSpace=wrap;html=1;" parent="1" vertex="1">
          <mxGeometry x="870" y="330" width="96.5" height="30" as="geometry" />
        </mxCell>
      </root>
    </mxGraphModel>
  </diagram>
</mxfile>
